<svg id="visual" viewBox="0 0 540 960" width="540" height="960" xmlns="http://www.w3.org/2000/svg" xmlns:xlink="http://www.w3.org/1999/xlink" version="1.1"><rect x="0" y="0" width="540" height="960" fill="#ffe9c9"></rect><defs><linearGradient id="grad1_0" x1="0%" y1="0%" x2="100%" y2="100%"><stop offset="30%" stop-color="#ffe9c9" stop-opacity="1"></stop><stop offset="70%" stop-color="#ffe9c9" stop-opacity="1"></stop></linearGradient></defs><defs><linearGradient id="grad2_0" x1="0%" y1="0%" x2="100%" y2="100%"><stop offset="30%" stop-color="#ffe9c9" stop-opacity="1"></stop><stop offset="70%" stop-color="#ffe9c9" stop-opacity="1"></stop></linearGradient></defs><g transform="translate(540, 0)"><path d="M0 216C-40.5 211.9 -80.9 207.8 -108 187.1C-135.1 166.3 -148.8 128.9 -164.5 95C-180.3 61.1 -198.2 30.5 -216 0L0 0Z" fill="#FF5757"></path></g><g transform="translate(0, 960)"><path d="M0 -216C32.9 -202.3 65.9 -188.6 99.5 -172.3C133.1 -156 167.5 -137.2 187.1 -108C206.6 -78.8 211.3 -39.4 216 0L0 0Z" fill="#FF5757"></path></g></svg>