<svg xmlns="http://www.w3.org/2000/svg" viewBox="0 0 512 512" id="injured-finger">
  <path fill="#fed2a4" d="M218.63 397.14V257.93a36.41 36.41 0 0 1 36.28-36.55 36.41 36.41 0 0 1 36.27 36.55v139.21Z"></path>
  <path fill="#fed2a4" d="M291.18 409.32V300.11a36.42 36.42 0 0 1 36.28-36.56 36.42 36.42 0 0 1 36.27 36.56v109.21Z"></path>
  <path fill="#ffbd86" d="M327.46 263.55a36 36 0 0 0-10.81 1.65 36.54 36.54 0 0 1 25.47 34.91v80.48a10.81 10.81 0 0 0 10.81 10.81 10.8 10.8 0 0 0 10.8-10.81v-80.48a36.42 36.42 0 0 0-36.27-36.56zm-72.55-42.17A35.73 35.73 0 0 0 244.1 223a36.53 36.53 0 0 1 25.47 34.9v98.4a10.81 10.81 0 0 0 10.8 10.81 10.81 10.81 0 0 0 10.81-10.81v-98.4a36.41 36.41 0 0 0-36.27-36.52z"></path>
  <path fill="#fed2a4" d="M146.14 388.51V281.66h-26.61a51.63 51.63 0 0 0-51.16 46l-2.49 21.9a554.06 554.06 0 0 0-2.31 99.25L65 470.39q.84 12.63 2.22 25.21a10 10 0 0 0 9.94 8.9h362a10 10 0 0 0 10-9.59 586.44 586.44 0 0 0-7.54-120.73L437.25 348c-.53-3.15-.83-6.32-1.15-9.49a36.6 36.6 0 0 0-11.7-23.32 36 36 0 0 0-24.39-9.5 36.42 36.42 0 0 0-36.28 36.56v49.2Z"></path>
  <path fill="#ffbd86" d="M441.62 374.18 437.25 348c-.53-3.15-.83-6.32-1.15-9.49a36.6 36.6 0 0 0-11.7-23.32 36.08 36.08 0 0 0-36.64-7.36 36.21 36.21 0 0 1 12.16 7.36 36.6 36.6 0 0 1 11.7 23.32c.32 3.17.62 6.34 1.15 9.49l4.37 26.14a586.07 586.07 0 0 1 7.06 130.36h14.95a10 10 0 0 0 10-9.59 586.44 586.44 0 0 0-7.53-120.73zm-295.48 14.33V281.66h-24.48V364a24.48 24.48 0 0 0 24.48 24.48z"></path>
  <path fill="#fed2a4" d="M146.14 403.51V44.05A36.42 36.42 0 0 1 182.42 7.5a36.42 36.42 0 0 1 36.27 36.55v353.09Z"></path>
  <path fill="#ffbd86" d="M207.81 337.14a10.89 10.89 0 0 0 10.88-10.89V44.05A36.42 36.42 0 0 0 182.42 7.5a36 36 0 0 0-10.89 1.68 36.53 36.53 0 0 1 25.39 34.87v282.2a10.9 10.9 0 0 0 10.89 10.89Z"></path>
  <path fill="#ffe5c2" d="M146.14 68.48h72.55v72.55h-72.55z"></path>
  <path fill="#fed2a4" d="M196.92 68.48h21.77v72.55h-21.77z"></path>
  <circle cx="168.15" cy="90.73" r="7.5" fill="#f6a96c"></circle>
  <circle cx="195.88" cy="118.71" r="7.5" fill="#f6a96c"></circle>
  <circle cx="195.88" cy="91.54" r="7.5" fill="#f6a96c"></circle>
  <circle cx="168.15" cy="117.9" r="7.5" fill="#f6a96c"></circle>
</svg>
