<svg width="37" height="43" viewBox="0 0 37 43" fill="none" xmlns="http://www.w3.org/2000/svg">
<path d="M37 21.5L29.6 29.3182L26.9915 26.5623L29.9145 23.4545H20.239C19.61 29.5136 16.058 34.6345 11.1 37.2341C11.026 40.4395 8.584 43 5.55 43C2.479 43 0 40.3809 0 37.1364C0 33.8918 2.479 31.2727 5.55 31.2727C7.3075 31.2727 8.843 32.1523 9.8605 33.5009C13.3755 31.4877 15.8915 27.8132 16.4835 23.4545H10.7485C9.99 25.7218 7.955 27.3636 5.55 27.3636C2.479 27.3636 0 24.7445 0 21.5C0 18.2555 2.479 15.6364 5.55 15.6364C7.955 15.6364 9.99 17.2782 10.767 19.5455H16.502C15.91 15.1868 13.3755 11.5318 9.8605 9.49909C8.843 10.8477 7.3075 11.7273 5.55 11.7273C2.479 11.7273 0 9.10818 0 5.86364C0 2.61909 2.479 0 5.55 0C8.584 0 11.026 2.56045 11.0815 5.76591C16.0395 8.36545 19.5915 13.4864 20.2205 19.5455H29.896L26.973 16.4377L29.6 13.6818L37 21.5Z" fill="white"/>
</svg>
