<svg width="37" height="37" viewBox="0 0 37 37" fill="none" xmlns="http://www.w3.org/2000/svg">
<path d="M18.5 37C15.3606 37 12.4735 36.2852 9.83864 34.8557C7.20379 33.4261 5.04545 31.5201 3.36364 29.1375V31.9545C3.36364 32.4311 3.20246 32.8305 2.88011 33.1528C2.55777 33.4752 2.15833 33.6364 1.68182 33.6364C1.2053 33.6364 0.805871 33.4752 0.483523 33.1528C0.161174 32.8305 0 32.4311 0 31.9545V25.2273C0 24.7508 0.161174 24.3513 0.483523 24.029C0.805871 23.7066 1.2053 23.5455 1.68182 23.5455H8.40909C8.88561 23.5455 9.28504 23.7066 9.60739 24.029C9.92974 24.3513 10.0909 24.7508 10.0909 25.2273C10.0909 25.7038 9.92974 26.1032 9.60739 26.4256C9.28504 26.7479 8.88561 26.9091 8.40909 26.9091H5.92841C7.27386 28.9273 9.04678 30.553 11.2472 31.7864C13.4475 33.0197 15.8652 33.6364 18.5 33.6364C22.4523 33.6364 25.8509 32.3189 28.696 29.6841C31.5411 27.0492 33.1599 23.8117 33.5523 19.9716C33.6083 19.5231 33.8045 19.1657 34.1409 18.8994C34.4773 18.6331 34.8697 18.5 35.3182 18.5C35.7947 18.5 36.2011 18.6472 36.5375 18.9415C36.8739 19.2358 37.014 19.5932 36.958 20.0136C36.7617 22.3962 36.1451 24.6176 35.108 26.6778C34.0708 28.7381 32.7254 30.532 31.0716 32.0597C29.4178 33.5873 27.5188 34.7926 25.3744 35.6756C23.2301 36.5585 20.9386 37 18.5 37ZM18.5 3.36364C14.5477 3.36364 11.1491 4.68106 8.30398 7.31591C5.4589 9.95076 3.84015 13.1883 3.44773 17.0284C3.39167 17.4769 3.19545 17.8343 2.85909 18.1006C2.52273 18.3669 2.1303 18.5 1.68182 18.5C1.2053 18.5 0.798864 18.3528 0.4625 18.0585C0.126136 17.7642 -0.0140152 17.4068 0.0420455 16.9864C0.238258 14.6038 0.854924 12.3824 1.89205 10.3222C2.92917 8.26193 4.27462 6.46799 5.92841 4.94034C7.5822 3.41269 9.48125 2.20739 11.6256 1.32443C13.7699 0.441477 16.0614 0 18.5 0C21.6394 0 24.5265 0.714773 27.1614 2.14432C29.7962 3.57386 31.9545 5.47992 33.6364 7.8625V5.04545C33.6364 4.56894 33.7975 4.16951 34.1199 3.84716C34.4422 3.52481 34.8417 3.36364 35.3182 3.36364C35.7947 3.36364 36.1941 3.52481 36.5165 3.84716C36.8388 4.16951 37 4.56894 37 5.04545V11.7727C37 12.2492 36.8388 12.6487 36.5165 12.971C36.1941 13.2934 35.7947 13.4545 35.3182 13.4545H28.5909C28.1144 13.4545 27.715 13.2934 27.3926 12.971C27.0703 12.6487 26.9091 12.2492 26.9091 11.7727C26.9091 11.2962 27.0703 10.8968 27.3926 10.5744C27.715 10.2521 28.1144 10.0909 28.5909 10.0909H31.0716C29.7261 8.07273 27.9532 6.44697 25.7528 5.21364C23.5525 3.9803 21.1348 3.36364 18.5 3.36364ZM18.5 28.5909C19.0886 28.5909 19.5862 28.3877 19.9926 27.9813C20.3991 27.5748 20.6023 27.0773 20.6023 26.4886C20.6023 25.9 20.3991 25.3955 19.9926 24.975C19.5862 24.5545 19.0886 24.3443 18.5 24.3443C17.9114 24.3443 17.4138 24.5475 17.0074 24.954C16.6009 25.3604 16.3977 25.858 16.3977 26.4466C16.3977 27.0352 16.6009 27.5398 17.0074 27.9602C17.4138 28.3807 17.9114 28.5909 18.5 28.5909ZM21.8636 18.0795C22.8447 17.0985 23.4964 16.3066 23.8188 15.704C24.1411 15.1013 24.3023 14.3795 24.3023 13.5386C24.3023 11.9689 23.7417 10.7216 22.6205 9.79659C21.4992 8.87159 20.1258 8.40909 18.5 8.40909C17.3788 8.40909 16.3837 8.64034 15.5148 9.10284C14.6458 9.56534 13.9311 10.2451 13.3705 11.142C13.1462 11.5064 13.1112 11.8989 13.2653 12.3193C13.4195 12.7398 13.6928 13.0341 14.0852 13.2023C14.4777 13.3705 14.8561 13.3564 15.2205 13.1602C15.5848 12.964 15.9072 12.6977 16.1875 12.3614C16.4678 12.025 16.8042 11.7587 17.1966 11.5625C17.589 11.3663 18.0235 11.2682 18.5 11.2682C19.2568 11.2682 19.8945 11.4854 20.4131 11.9199C20.9316 12.3544 21.1909 12.936 21.1909 13.6648C21.1909 14.1413 21.0788 14.6178 20.8545 15.0943C20.6303 15.5708 20.1538 16.1314 19.425 16.7761C18.7242 17.3928 18.1987 17.9955 17.8483 18.5841C17.4979 19.1727 17.2527 19.8455 17.1125 20.6023C17.0564 21.0227 17.1686 21.3941 17.4489 21.7165C17.7292 22.0388 18.0936 22.2 18.542 22.2C18.9625 22.2 19.3129 22.0388 19.5932 21.7165C19.8735 21.3941 20.0697 21.0227 20.1818 20.6023C20.2939 20.1258 20.4831 19.7053 20.7494 19.3409C21.0157 18.9765 21.3871 18.5561 21.8636 18.0795Z" fill="white"/>
</svg>
