<svg width="44" height="32" viewBox="0 0 44 32" fill="none" xmlns="http://www.w3.org/2000/svg">
<path d="M27.2683 0H2.17078V3.53061H27.2683V0Z" fill="white"/>
<path d="M25.1769 5.29589H4.26227C1.96166 5.29589 0.0793457 6.88467 0.0793457 8.8265V28.2449C0.0793457 30.1867 1.96166 31.7755 4.26227 31.7755H25.1769C27.4775 31.7755 29.3598 30.1867 29.3598 28.2449V8.8265C29.3598 6.88467 27.4775 5.29589 25.1769 5.29589ZM23.0854 21.1836H17.8568V25.5969H11.5824V21.1836H6.35372V15.8877H11.5824V11.4745H17.8568V15.8877H23.0854V21.1836Z" fill="white"/>
<path d="M37.7257 5.2959C34.212 5.2959 31.4513 8.40284 31.4513 12.3571C31.4513 15.4817 33.1872 18.0414 35.6342 18.9947V30.0102C35.6342 30.9811 36.5754 31.7755 37.7257 31.7755C38.876 31.7755 39.8171 30.9811 39.8171 30.0102V18.9947C42.2641 18.0414 44.0001 15.4817 44.0001 12.3571C44.0001 8.40284 41.2393 5.2959 37.7257 5.2959Z" fill="white"/>
</svg>
