<svg width="37" height="34" viewBox="0 0 37 34" fill="none" xmlns="http://www.w3.org/2000/svg">
<path d="M9.25 23.8V25.5C9.25 25.9817 9.42698 26.3851 9.78095 26.7104C10.1362 27.0368 10.5758 27.2 11.1 27.2C11.6242 27.2 12.0639 27.0368 12.4191 26.7104C12.773 26.3851 12.95 25.9817 12.95 25.5V23.8H14.8C15.3242 23.8 15.7639 23.6368 16.1191 23.3104C16.473 22.9851 16.65 22.5817 16.65 22.1C16.65 21.6183 16.473 21.2143 16.1191 20.8879C15.7639 20.5626 15.3242 20.4 14.8 20.4H12.95V18.7C12.95 18.2183 12.773 17.8143 12.4191 17.4879C12.0639 17.1626 11.6242 17 11.1 17C10.5758 17 10.1362 17.1626 9.78095 17.4879C9.42698 17.8143 9.25 18.2183 9.25 18.7V20.4H7.4C6.87583 20.4 6.43615 20.5626 6.08095 20.8879C5.72698 21.2143 5.55 21.6183 5.55 22.1C5.55 22.5817 5.72698 22.9851 6.08095 23.3104C6.43615 23.6368 6.87583 23.8 7.4 23.8H9.25ZM30.0625 21.25C30.4633 21.25 30.7951 21.1293 31.0578 20.8879C31.3193 20.6476 31.45 20.3433 31.45 19.975C31.45 19.6067 31.3193 19.3018 31.0578 19.0604C30.7951 18.8201 30.4633 18.7 30.0625 18.7H21.7375C21.3367 18.7 21.0055 18.8201 20.7441 19.0604C20.4813 19.3018 20.35 19.6067 20.35 19.975C20.35 20.3433 20.4813 20.6476 20.7441 20.8879C21.0055 21.1293 21.3367 21.25 21.7375 21.25H30.0625ZM26.3625 26.35C26.7633 26.35 27.0951 26.2299 27.3578 25.9896C27.6193 25.7482 27.75 25.4433 27.75 25.075C27.75 24.7067 27.6193 24.4018 27.3578 24.1604C27.0951 23.9201 26.7633 23.8 26.3625 23.8H21.7375C21.3367 23.8 21.0055 23.9201 20.7441 24.1604C20.4813 24.4018 20.35 24.7067 20.35 25.075C20.35 25.4433 20.4813 25.7482 20.7441 25.9896C21.0055 26.2299 21.3367 26.35 21.7375 26.35H26.3625ZM24.05 8.5H33.3C34.3175 8.5 35.1889 8.83263 35.9141 9.4979C36.638 10.1643 37 10.965 37 11.9V30.6C37 31.535 36.638 32.3357 35.9141 33.0021C35.1889 33.6674 34.3175 34 33.3 34H3.7C2.6825 34 1.81177 33.6674 1.0878 33.0021C0.3626 32.3357 0 31.535 0 30.6V11.9C0 10.965 0.3626 10.1643 1.0878 9.4979C1.81177 8.83263 2.6825 8.5 3.7 8.5H12.95V3.4C12.95 2.465 13.3126 1.6643 14.0378 0.9979C14.7618 0.332633 15.6325 0 16.65 0H20.35C21.3675 0 22.2388 0.332633 22.9641 0.9979C23.688 1.6643 24.05 2.465 24.05 3.4V8.5ZM16.65 11.9H20.35V3.4H16.65V11.9Z" fill="white"/>
</svg>
