<svg width="37" height="36" viewBox="0 0 37 36" fill="none" xmlns="http://www.w3.org/2000/svg">
<path d="M32.6454 19.7625C32.7247 19.2 32.7643 18.6187 32.7643 18C32.7643 17.4 32.7247 16.8 32.6256 16.2375L36.6474 13.275C37.004 13.0125 37.103 12.5062 36.8851 12.1312L33.0813 5.90625C32.8435 5.49375 32.3483 5.3625 31.9124 5.49375L27.1774 7.29375C26.1869 6.58125 25.1369 5.98125 23.968 5.53125L23.2548 0.76875C23.1755 0.31875 22.7793 0 22.3038 0H14.6962C14.2207 0 13.8443 0.31875 13.765 0.76875L13.0518 5.53125C11.8829 5.98125 10.8131 6.6 9.84236 7.29375L5.10741 5.49375C4.67156 5.34375 4.17627 5.49375 3.93853 5.90625L0.154531 12.1312C-0.0832077 12.525 -0.00396183 13.0125 0.392269 13.275L4.41401 16.2375C4.31495 16.8 4.2357 17.4188 4.2357 18C4.2357 18.5812 4.27533 19.2 4.37438 19.7625L0.352646 22.725C-0.0039618 22.9875 -0.103019 23.4937 0.114908 23.8687L3.91872 30.0938C4.15646 30.5063 4.65175 30.6375 5.0876 30.5062L9.82255 28.7062C10.8131 29.4187 11.8631 30.0187 13.032 30.4687L13.7452 35.2313C13.8443 35.6813 14.2207 36 14.6962 36H22.3038C22.7793 36 23.1755 35.6813 23.235 35.2313L23.9482 30.4687C25.117 30.0187 26.1869 29.4187 27.1576 28.7062L31.8926 30.5062C32.3284 30.6562 32.8237 30.5063 33.0615 30.0938L36.8653 23.8687C37.103 23.4562 37.004 22.9875 36.6275 22.725L32.6454 19.7625ZM18.5 24.75C14.5773 24.75 11.3679 21.7125 11.3679 18C11.3679 14.2875 14.5773 11.25 18.5 11.25C22.4227 11.25 25.6321 14.2875 25.6321 18C25.6321 21.7125 22.4227 24.75 18.5 24.75Z" fill="white"/>
</svg>
