<svg width="37" height="35" viewBox="0 0 37 35" fill="none" xmlns="http://www.w3.org/2000/svg">
<path d="M10.6889 25.8562C11.6824 26.7021 12.8561 27.132 14.2101 27.146C15.5626 27.1612 16.7356 26.7458 17.7292 25.9L20.6069 23.45L13.5667 17.4563L10.6889 19.9062C9.69537 20.7521 9.19861 21.7437 9.19861 22.8813C9.19861 24.0187 9.69537 25.0104 10.6889 25.8562ZM26.3111 12.6438C25.3176 11.8271 24.1446 11.4042 22.792 11.375C21.4381 11.3458 20.2644 11.7542 19.2708 12.6L16.4444 15.0062L23.4847 21L26.3111 18.5938C27.3046 17.7479 27.7932 16.7563 27.7767 15.6188C27.7589 14.4813 27.2704 13.4896 26.3111 12.6438ZM4.11111 35C2.98056 35 2.01239 34.6576 1.20661 33.9728C0.402203 33.2868 0 32.4625 0 31.5V7C0 6.0375 0.402203 5.21325 1.20661 4.52725C2.01239 3.84242 2.98056 3.5 4.11111 3.5H12.7444C13.1898 2.45 13.9353 1.60417 14.9809 0.9625C16.0251 0.320833 17.1981 0 18.5 0C19.8019 0 20.9756 0.320833 22.0212 0.9625C23.0654 1.60417 23.8102 2.45 24.2556 3.5H32.8889C34.0194 3.5 34.9876 3.84242 35.7934 4.52725C36.5978 5.21325 37 6.0375 37 7V31.5C37 32.4625 36.5978 33.2868 35.7934 33.9728C34.9876 34.6576 34.0194 35 32.8889 35H4.11111ZM18.5 5.6875C18.9454 5.6875 19.314 5.56325 19.6059 5.31475C19.8964 5.06742 20.0417 4.75417 20.0417 4.375C20.0417 3.99583 19.8964 3.682 19.6059 3.4335C19.314 3.18617 18.9454 3.0625 18.5 3.0625C18.0546 3.0625 17.6867 3.18617 17.3962 3.4335C17.1043 3.682 16.9583 3.99583 16.9583 4.375C16.9583 4.75417 17.1043 5.06742 17.3962 5.31475C17.6867 5.56325 18.0546 5.6875 18.5 5.6875Z" fill="white"/>
</svg>
